#N canvas 10 10 500 300 10;
#X obj 50 50 osc~ 50;
#X obj 50 150 *~ 0;
#X obj 50 200 dac~;
#X msg 150 50 0, 50 0, 0 100 50;
#X obj 150 150 vline~;
#X msg 250 50 1, 0 0 100, 0 200;
#X obj 250 150 vline~;
#X connect 0 0 1 0;
#X connect 1 0 2 0;
#X connect 4 0 1 1;
#X connect 5 0 0 0;